<svg xmlns="http://www.w3.org/2000/svg" viewBox="0 0 597 1023"><g fill="none" stroke-width="2"><path stroke="#c6b318" d="M295.5 371.54c-2.43 1.04-5.05 1.68-7.32 2.75q-5.24 2.48-10.51 4.82c-2.03.9-3.93 2.49-5.9 3.64-5.23 3.06-9.74 7.12-14.02 11.38-.8.78-.93 1.73-1.78 2.59-2.16 2.14-5.08 5.25-6.06 8.17q-.26.78-.82 1.82-12.06 22.48-7.16 47.96c.7 3.64 2.13 7.45 3.29 11.17.57 1.82 5.19 11.41 6.1 11.83q.45.21.67.66.23.48.21.92-.02.47.25.84c6.17 8.44 11.47 14.58 19.62 19.73 18.89 11.92 42.79 13.87 63.42 6.16q19.09-7.14 32.16-24.82.27-.37.36-.82.12-.58.74-.91.44-.24.71-.66 3.88-6.29 6.47-13.19c1.01-2.67 1.44-5.87 2.27-8.81 2.11-7.47 2-16.04 2.17-23.77q.01-.41.22-.05l.2.35q.11.18.21 0 .07-.12.04-.3" vector-effect="non-scaling-stroke"/><path stroke="#a19316" d="m383.71 470.5-.25-.59a.48.48 0 0 0-.88-.02l-4.31 8.78q-.25.51-.75.77c-.8.42-.51.94-.81 1.46-4.36 7.45-10.09 13.34-16.46 19.09-3.59 3.25-8.03 5.91-12.07 8.93-4.19 3.14-11.49 4.72-15.25 6.12q-6.9 2.58-9.68 2.72c-5.59.29-11.44 1.15-16.69.79q-13.52-.94-26.16-5.78c-2.96-1.13-5.98-3.54-9.36-4.77q-1.7-.62-2.83-1.55c-5-4.1-10.72-8.29-15.07-13.49-8.15-9.75-14.57-20.2-17.71-32.69-.26-1.03-.91-2.25-1.17-3.79q-4.33-25.54 5.8-48.38c.76-1.71 2.46-2.96 2.56-5.44q.02-.49.3-.9c2.28-3.42 3.78-6.8 6.72-9.83q4.4-4.55 7.82-9.99" vector-effect="non-scaling-stroke"/><path stroke="#736c1b" d="M360.25 518.04c-5.68 2.48-11.85 5.82-17.07 7.71-22.37 8.07-46.69 8.27-68.71-1.19q-.15-.07-.19-.23c-.05-.26-.15-.4-.42-.49q-8.73-3-15.73-8.98c-1.46-1.25-3.28-1.83-4.78-3.19q-.07-.06.02-.09l.24-.08q.34-.11.04-.29c-1.22-.73-1.9-.82-2.93-1.88q-3.75-3.86-7.82-7.41c-1.6-1.4-2.21-3.09-3.57-4.64q-2.24-2.56-2.79-3.38c-5.18-7.74-10.24-15.85-12.98-24.79q-6.18-20.13-3.35-41.01c.5-3.68.24-6.6 2.42-10.17q.14-.22-.01-.44-.1-.13-.16-.24" vector-effect="non-scaling-stroke"/><path stroke="#ead21a" d="M251.17 427.96c-.92.51-1.19 11.96-1.23 13.59-.04 1.69.58 3.24.55 5.04-.23 12.16 6.38 25.16 14.42 34.01 2.63 2.9 5.96 7.31 9.3 9.24 2.53 1.45 4.71 3.11 7.32 4.19 5.06 2.11 10.39 4.6 15.5 5.71q13.6 2.95 27.4.36 1.52-.29 4.7-1.34c4.72-1.57 9.19-2.49 13.11-6.19 1.87-1.75 4.53-2.79 6.2-4.31 1.67-1.51 11.06-10.2 11.06-11.8q0-.49.3-.88c9.53-12.31 12.23-27.52 10.64-42.82-1.04-9.99-4.1-15.72-8.34-23.5-3.06-5.62-6.83-9.97-11.1-14.66q-.33-.36-.79-.53-.51-.18-1.25-.8c-7.56-6.4-15.97-10.23-27.13-12.37-11.51-2.21-25.38-1.04-36.08 4.01q-.42.2-.72.56c-1.21 1.44-3.19 1.58-4.36 2.28-14.4 8.59-26.29 22.72-29.08 39.62q-.06.39-.42.59" vector-effect="non-scaling-stroke"/><path stroke="gray" d="M401.67 882.59c-2.55 44.08 31.03 77.07 75.59 69.4 39.81-6.84 56.7-44.73 48.83-81.66-5.92-27.75-30.78-45.92-58.49-47.23-34.84-1.65-63.9 24.43-65.93 59.49M228.62 830.8q.38 0 .38.38v113.46q0 .64-.64.63l-16.96-.07q-.4 0-.4.4v5.13q0 .5.5.5 31.27.07 62.54-.01c13.97-.04 30.26-.67 42.63-7.82 21.92-12.68 35.09-35.11 33.46-60.84-2.07-32.66-27.24-56.29-59.64-57.55q-20.49-.8-79.1-.09-.39 0-.39.39v4.99q0 .55.55.55l17.07-.05M109.54 884.28c14.59-2.38 37.93-5.77 44.41-21.57 3.99-9.74.59-19.41-7.04-26.04-15.7-13.66-52.63-16.24-68.82-1.27-21.37 19.76 10.71 37.19 21.41 21.3 2.67-3.96 2.4-9.02-.72-12.78-2.38-2.86-5.26-4.01-7.54-6.31a1.92 1.91 53 0 1 .42-3.02c9.38-5.25 24.48-5.81 28.47 6.74q3.56 11.21.86 24.42c-3.33 16.27-18.93 17.46-32.42 15.88-7.31-.85-8.71 6.52-1.62 6.35 7.06-.16 15.9-1.05 21.97.78 14.83 4.45 17.05 22.53 15.39 35.75-1.18 9.39-3.47 17.74-12.37 21.34-6.87 2.79-15.86 1.34-22.86-1.42q-3.17-1.24-2.71-3.55a2.19 2.18-8.9 0 1 1.09-1.48c3.26-1.81 6.77-3.89 8.86-6.88 5.57-8.01 1.04-16.4-7.43-19.16q-5.97-1.94-12.06.22c-12 4.28-12.84 17.85-5.23 26.58 13.89 15.91 41.67 15.73 60.07 10.08 16.41-5.04 30.09-18.36 27.06-36.53-3.79-22.83-29.81-28.98-49.05-28.99q-.13 0-.22-.09l-.07-.09q-.14-.22.15-.26" vector-effect="non-scaling-stroke"/><path stroke="gray" d="M441.43 921.94c.77 17.09 10.04 27.02 27.84 24.52 18-2.52 18.53-17.77 18.96-33.21q.87-30.74-.26-57.49c-.48-11.29-3.57-23.57-16.29-25.89-20.53-3.74-29.15 6.27-30.11 25.63q-1.64 33.22-.14 66.44M310.17 862.49c-.92-11.31-3.97-26.23-16.86-29.8-9.44-2.62-19.7-1.74-29.33-1.67q-.48.01-.48.49v112.73q0 .46.46.5 14.14 1.22 26.21-1.32c13.88-2.92 17.61-13.81 19.07-26.42q3.16-27.21.93-54.51" vector-effect="non-scaling-stroke"/></g><rect width="143.12" height="143.14" x="-71.56" y="-71.57" fill="red" rx=".26" transform="rotate(-45 284.35 -304.361)"/><path fill="#0000a0" d="M292.01 360.63c-19.97-1.89-45.32-4.24-66.26-9.99-7.52-2.06-11.03-4.85-13.81-11.83-5.53-13.87-7.92-27.84-9.22-42.11q-.69-7.59.2-14.87c1.73-14.25 3.83-32.89 11.54-45.81 2.78-4.65 10.82-7.05 16.97-8.38 19.73-4.26 40.02-6.53 60.11-8.24q6.77-.58 13.54-.01c21.04 1.76 42.32 4.07 62.9 8.96 6.05 1.44 11.99 3.22 15.13 8.92q4.07 7.38 6.16 16.23c3.39 14.4 6.41 29.91 4.89 44.52-1.44 13.8-3.75 26.85-8.94 40.47-3.62 9.49-9.15 11.09-19.2 13.61q-7.81 1.95-15.77 3.16-22.55 3.41-45.26 5.39-6.64.58-12.98-.02Z"/><path fill="#b7a617" d="M295.5 371.54c-2.43 1.04-5.05 1.68-7.32 2.75q-5.24 2.48-10.51 4.82c-2.03.9-3.93 2.49-5.9 3.64-5.23 3.06-9.74 7.12-14.02 11.38-.8.78-.93 1.73-1.78 2.59-2.16 2.14-5.08 5.25-6.06 8.17q-.26.78-.82 1.82-12.06 22.48-7.16 47.96c.7 3.64 2.13 7.45 3.29 11.17.57 1.82 5.19 11.41 6.1 11.83q.45.21.67.66.23.48.21.92-.02.47.25.84c6.17 8.44 11.47 14.58 19.62 19.73 18.89 11.92 42.79 13.87 63.42 6.16q19.09-7.14 32.16-24.82.27-.37.36-.82.12-.58.74-.91.44-.24.71-.66 3.88-6.29 6.47-13.19c1.01-2.67 1.44-5.87 2.27-8.81 2.11-7.47 2-16.04 2.17-23.77q.01-.41.22-.05l.2.35q.11.18.21 0 .07-.12.04-.3 5.63 18.42 2.67 37.5l-.25-.59a.48.48 0 0 0-.88-.02l-4.31 8.78q-.25.51-.75.77c-.8.42-.51.94-.81 1.46-4.36 7.45-10.09 13.34-16.46 19.09-3.59 3.25-8.03 5.91-12.07 8.93-4.19 3.14-11.49 4.72-15.25 6.12q-6.9 2.58-9.68 2.72c-5.59.29-11.44 1.15-16.69.79q-13.52-.94-26.16-5.78c-2.96-1.13-5.98-3.54-9.36-4.77q-1.7-.62-2.83-1.55c-5-4.1-10.72-8.29-15.07-13.49-8.15-9.75-14.57-20.2-17.71-32.69-.26-1.03-.91-2.25-1.17-3.79q-4.33-25.54 5.8-48.38c.76-1.71 2.46-2.96 2.56-5.44q.02-.49.3-.9c2.28-3.42 3.78-6.8 6.72-9.83q4.4-4.55 7.82-9.99 17.68-9.75 38.04-10.4Z"/><path fill="#d4bf19" d="M295.5 371.54c38.76-1.39 74.82 23.94 85.54 61.46q.03.18-.04.3-.1.18-.21 0l-.2-.35q-.21-.36-.22.05c-.17 7.73-.06 16.3-2.17 23.77-.83 2.94-1.26 6.14-2.27 8.81q-2.59 6.9-6.47 13.19-.27.42-.71.66-.62.33-.74.91-.09.45-.36.82-13.07 17.68-32.16 24.82c-20.63 7.71-44.53 5.76-63.42-6.16-8.15-5.15-13.45-11.29-19.62-19.73q-.27-.37-.25-.84.02-.44-.21-.92-.22-.45-.67-.66c-.91-.42-5.53-10.01-6.1-11.83-1.16-3.72-2.59-7.53-3.29-11.17q-4.9-25.48 7.16-47.96.56-1.04.82-1.82c.98-2.92 3.9-6.03 6.06-8.17.85-.86.98-1.81 1.78-2.59 4.28-4.26 8.79-8.32 14.02-11.38 1.97-1.15 3.87-2.74 5.9-3.64q5.27-2.34 10.51-4.82c2.27-1.07 4.89-1.71 7.32-2.75Zm-44.33 56.42c-.92.51-1.19 11.96-1.23 13.59-.04 1.69.58 3.24.55 5.04-.23 12.16 6.38 25.16 14.42 34.01 2.63 2.9 5.96 7.31 9.3 9.24 2.53 1.45 4.71 3.11 7.32 4.19 5.06 2.11 10.39 4.6 15.5 5.71q13.6 2.95 27.4.36 1.52-.29 4.7-1.34c4.72-1.57 9.19-2.49 13.11-6.19 1.87-1.75 4.53-2.79 6.2-4.31 1.67-1.51 11.06-10.2 11.06-11.8q0-.49.3-.88c9.53-12.31 12.23-27.52 10.64-42.82-1.04-9.99-4.1-15.72-8.34-23.5-3.06-5.62-6.83-9.97-11.1-14.66q-.33-.36-.79-.53-.51-.18-1.25-.8c-7.56-6.4-15.97-10.23-27.13-12.37-11.51-2.21-25.38-1.04-36.08 4.01q-.42.2-.72.56c-1.21 1.44-3.19 1.58-4.36 2.28-14.4 8.59-26.29 22.72-29.08 39.62q-.06.39-.42.59Z"/><path fill="#ffe41b" d="M251.59 427.37c2.79-16.9 14.68-31.03 29.08-39.62 1.17-.7 3.15-.84 4.36-2.28q.3-.36.72-.56c10.7-5.05 24.57-6.22 36.08-4.01 11.16 2.14 19.57 5.97 27.13 12.37q.74.62 1.25.8.46.17.79.53c4.27 4.69 8.04 9.04 11.1 14.66 4.24 7.78 7.3 13.51 8.34 23.5 1.59 15.3-1.11 30.51-10.64 42.82q-.3.39-.3.88c0 1.6-9.39 10.29-11.06 11.8-1.67 1.52-4.33 2.56-6.2 4.31-3.92 3.7-8.39 4.62-13.11 6.19q-3.18 1.05-4.7 1.34-13.8 2.59-27.4-.36c-5.11-1.11-10.44-3.6-15.5-5.71-2.61-1.08-4.79-2.74-7.32-4.19-3.34-1.93-6.67-6.34-9.3-9.24-8.04-8.85-14.65-21.85-14.42-34.01.03-1.8-.59-3.35-.55-5.04.04-1.63.31-13.08 1.23-13.59q.36-.2.42-.59Z"/><path fill="#8b8014" d="M257.46 381.94q-3.42 5.44-7.82 9.99c-2.94 3.03-4.44 6.41-6.72 9.83q-.28.41-.3.9c-.1 2.48-1.8 3.73-2.56 5.44q-10.13 22.84-5.8 48.38c.26 1.54.91 2.76 1.17 3.79 3.14 12.49 9.56 22.94 17.71 32.69 4.35 5.2 10.07 9.39 15.07 13.49q1.13.93 2.83 1.55c3.38 1.23 6.4 3.64 9.36 4.77q12.64 4.84 26.16 5.78c5.25.36 11.1-.5 16.69-.79q2.78-.14 9.68-2.72c3.76-1.4 11.06-2.98 15.25-6.12 4.04-3.02 8.48-5.68 12.07-8.93 6.37-5.75 12.1-11.64 16.46-19.09.3-.52.01-1.04.81-1.46q.5-.26.75-.77l4.31-8.78a.48.48 0 0 1 .88.02l.25.59q-4.06 27.64-23.46 47.54c-5.68 2.48-11.85 5.82-17.07 7.71-22.37 8.07-46.69 8.27-68.71-1.19q-.15-.07-.19-.23c-.05-.26-.15-.4-.42-.49q-8.73-3-15.73-8.98c-1.46-1.25-3.28-1.83-4.78-3.19q-.07-.06.02-.09l.24-.08q.34-.11.04-.29c-1.22-.73-1.9-.82-2.93-1.88q-3.75-3.86-7.82-7.41c-1.6-1.4-2.21-3.09-3.57-4.64q-2.24-2.56-2.79-3.38c-5.18-7.74-10.24-15.85-12.98-24.79q-6.18-20.13-3.35-41.01c.5-3.68.24-6.6 2.42-10.17q.14-.22-.01-.44-.1-.13-.16-.24 12.11-22.94 35-35.31Z"/><path fill="#5b5721" d="M222.46 417.25q.06.11.16.24.15.22.01.44c-2.18 3.57-1.92 6.49-2.42 10.17q-2.83 20.88 3.35 41.01c2.74 8.94 7.8 17.05 12.98 24.79q.55.82 2.79 3.38c1.36 1.55 1.97 3.24 3.57 4.64q4.07 3.55 7.82 7.41c1.03 1.06 1.71 1.15 2.93 1.88q.3.18-.04.29l-.24.08q-.09.03-.02.09c1.5 1.36 3.32 1.94 4.78 3.19q7 5.98 15.73 8.98c.27.09.37.23.42.49q.04.16.19.23c22.02 9.46 46.34 9.26 68.71 1.19 5.22-1.89 11.39-5.23 17.07-7.71-35.37 35.78-91.83 34.9-125.78-2.27-24.62-26.96-28.83-66.41-12.01-98.52Z"/><ellipse cx="298.49" cy="625.72" fill="#888" rx="101.39" ry="17.75"/><path d="M582.75 1011.94a.33.33 0 0 1-.33.33H14.58a.33.33 0 0 1-.33-.33V778.58a.33.33 0 0 1 .33-.33h567.84a.33.33 0 0 1 .33.33v233.36ZM401.67 882.59c-2.55 44.08 31.03 77.07 75.59 69.4 39.81-6.84 56.7-44.73 48.83-81.66-5.92-27.75-30.78-45.92-58.49-47.23-34.84-1.65-63.9 24.43-65.93 59.49ZM228.62 830.8q.38 0 .38.38v113.46q0 .64-.64.63l-16.96-.07q-.4 0-.4.4v5.13q0 .5.5.5 31.27.07 62.54-.01c13.97-.04 30.26-.67 42.63-7.82 21.92-12.68 35.09-35.11 33.46-60.84-2.07-32.66-27.24-56.29-59.64-57.55q-20.49-.8-79.1-.09-.39 0-.39.39v4.99q0 .55.55.55l17.07-.05Zm-119.08 53.48c14.59-2.38 37.93-5.77 44.41-21.57 3.99-9.74.59-19.41-7.04-26.04-15.7-13.66-52.63-16.24-68.82-1.27-21.37 19.76 10.71 37.19 21.41 21.3 2.67-3.96 2.4-9.02-.72-12.78-2.38-2.86-5.26-4.01-7.54-6.31a1.92 1.91 53 0 1 .42-3.02c9.38-5.25 24.48-5.81 28.47 6.74q3.56 11.21.86 24.42c-3.33 16.27-18.93 17.46-32.42 15.88-7.31-.85-8.71 6.52-1.62 6.35 7.06-.16 15.9-1.05 21.97.78 14.83 4.45 17.05 22.53 15.39 35.75-1.18 9.39-3.47 17.74-12.37 21.34-6.87 2.79-15.86 1.34-22.86-1.42q-3.17-1.24-2.71-3.55a2.19 2.18-8.9 0 1 1.09-1.48c3.26-1.81 6.77-3.89 8.86-6.88 5.57-8.01 1.04-16.4-7.43-19.16q-5.97-1.94-12.06.22c-12 4.28-12.84 17.85-5.23 26.58 13.89 15.91 41.67 15.73 60.07 10.08 16.41-5.04 30.09-18.36 27.06-36.53-3.79-22.83-29.81-28.98-49.05-28.99q-.13 0-.22-.09l-.07-.09q-.14-.22.15-.26Z"/><path fill="#fff" d="M477.26 951.99c-44.56 7.67-78.14-25.32-75.59-69.4 2.03-35.06 31.09-61.14 65.93-59.49 27.71 1.31 52.57 19.48 58.49 47.23 7.87 36.93-9.02 74.82-48.83 81.66Zm-35.83-30.05c.77 17.09 10.04 27.02 27.84 24.52 18-2.52 18.53-17.77 18.96-33.21q.87-30.74-.26-57.49c-.48-11.29-3.57-23.57-16.29-25.89-20.53-3.74-29.15 6.27-30.11 25.63q-1.64 33.22-.14 66.44ZM228.62 830.8l-17.07.05q-.55 0-.55-.55v-4.99q0-.39.39-.39 58.61-.71 79.1.09c32.4 1.26 57.57 24.89 59.64 57.55 1.63 25.73-11.54 48.16-33.46 60.84-12.37 7.15-28.66 7.78-42.63 7.82q-31.27.08-62.54.01-.5 0-.5-.5v-5.13q0-.4.4-.4l16.96.07q.64.01.64-.63V831.18q0-.38-.38-.38Zm81.55 31.69c-.92-11.31-3.97-26.23-16.86-29.8-9.44-2.62-19.7-1.74-29.33-1.67q-.48.01-.48.49v112.73q0 .46.46.5 14.14 1.22 26.21-1.32c13.88-2.92 17.61-13.81 19.07-26.42q3.16-27.21.93-54.51ZM109.39 884.54l.07.09q.09.09.22.09c19.24.01 45.26 6.16 49.05 28.99 3.03 18.17-10.65 31.49-27.06 36.53-18.4 5.65-46.18 5.83-60.07-10.08-7.61-8.73-6.77-22.3 5.23-26.58q6.09-2.16 12.06-.22c8.47 2.76 13 11.15 7.43 19.16-2.09 2.99-5.6 5.07-8.86 6.88a2.19 2.18-8.9 0 0-1.09 1.48q-.46 2.31 2.71 3.55c7 2.76 15.99 4.21 22.86 1.42 8.9-3.6 11.19-11.95 12.37-21.34 1.66-13.22-.56-31.3-15.39-35.75-6.07-1.83-14.91-.94-21.97-.78-7.09.17-5.69-7.2 1.62-6.35 13.49 1.58 29.09.39 32.42-15.88q2.7-13.21-.86-24.42c-3.99-12.55-19.09-11.99-28.47-6.74a1.92 1.91 53 0 0-.42 3.02c2.28 2.3 5.16 3.45 7.54 6.31 3.12 3.76 3.39 8.82.72 12.78-10.7 15.89-42.78-1.54-21.41-21.3 16.19-14.97 53.12-12.39 68.82 1.27 7.63 6.63 11.03 16.3 7.04 26.04-6.48 15.8-29.82 19.19-44.41 21.57q-.29.04-.15.26Z"/><path d="M469.27 946.46c-17.8 2.5-27.07-7.43-27.84-24.52q-1.5-33.22.14-66.44c.96-19.36 9.58-29.37 30.11-25.63 12.72 2.32 15.81 14.6 16.29 25.89q1.13 26.75.26 57.49c-.43 15.44-.96 30.69-18.96 33.21ZM293.31 832.69c12.89 3.57 15.94 18.49 16.86 29.8q2.23 27.3-.93 54.51c-1.46 12.61-5.19 23.5-19.07 26.42q-12.07 2.54-26.21 1.32-.46-.04-.46-.5V831.51q0-.48.48-.49c9.63-.07 19.89-.95 29.33 1.67Z"/></svg>